# This file uses centimeters as units for non-parametric coordinates.

mtllib cryotasis.mtl
g default
v -2.238971 0.061760 0.002192
v 2.238971 0.061760 0.002192
v -2.238971 0.061760 0.736140
v 2.238971 0.061760 0.736140
v -2.238971 10.210444 0.736140
v 2.238971 10.210444 0.736140
v -2.238971 10.210444 0.002192
v 2.238971 10.210444 0.002192
v -2.227940 0.068167 0.646714
v 2.212701 0.068167 0.646714
v -1.456114 0.068167 1.646714
v 1.440874 0.068167 1.646714
v -1.456114 2.733897 1.646714
v 1.440874 2.733897 1.646714
v -2.227940 2.733897 0.646714
v 2.212701 2.733897 0.646714
v -1.348116 2.733897 1.609435
v 1.332876 2.733897 1.609435
v 2.047157 2.733897 0.683993
v -2.062396 2.733897 0.683993
v -1.348116 2.831830 1.609435
v 1.332876 2.831830 1.609435
v 2.047157 2.831830 0.683993
v -2.062396 2.831830 0.683993
v -1.240257 2.831830 1.572203
v 1.225017 2.831830 1.572203
v 1.881825 2.831830 0.721225
v -1.897064 2.831830 0.721225
v -1.240257 8.757680 1.572203
v 1.225017 8.757680 1.572203
v 1.881825 8.757680 0.721225
v -1.897064 8.757680 0.721225
v -1.444713 8.769686 1.642779
v 1.429473 8.769686 1.642779
v 2.195225 8.769686 0.650649
v -2.210465 8.769686 0.650649
v -1.444713 9.299673 1.642779
v 1.429473 9.299673 1.642779
v 2.195225 9.299673 0.650649
v -2.210465 9.299673 0.650649
v -1.013174 9.299673 1.360810
v 0.997934 9.299673 1.360810
v 1.533741 9.299673 0.666604
v -1.548981 9.299673 0.666604
v -1.013174 10.223874 1.360810
v 0.997934 10.223874 1.360810
v 1.533741 10.223874 0.666604
v -1.548981 10.223874 0.666604
vt 0.070816 0.040126
vt 0.464440 0.040126
vt 0.464440 0.433750
vt 0.070816 0.433750
vt 0.070816 0.433750
vt 0.464440 0.433750
vt 0.070816 0.433750
vt 0.464440 0.433750
vt 0.464440 0.040126
vt 0.070816 0.040126
vt 0.465143 0.034878
vt 0.054358 0.034878
vt 0.054358 0.445663
vt 0.465143 0.445663
vt 0.070816 0.040126
vt 0.464440 0.040126
vt 0.464440 0.433750
vt 0.070816 0.433750
vt 0.070816 0.040126
vt 0.464440 0.040126
vt 0.464440 0.433750
vt 0.070816 0.433750
vt 0.464440 0.040126
vt 0.070816 0.040126
vt 0.021762 0.504043
vt 0.478420 0.504043
vt 0.399048 0.960700
vt 0.101134 0.960700
vt 0.021762 0.504043
vt 0.478420 0.504043
vt 0.478420 0.960700
vt 0.021762 0.960700
vt 0.101134 0.960700
vt 0.399048 0.960700
vt 0.478420 0.504043
vt 0.021762 0.504043
vt 0.193009 0.846536
vt 0.307173 0.846536
vt 0.307173 0.960700
vt 0.193009 0.960700
vt 0.021762 0.504043
vt 0.478420 0.504043
vt 0.478420 0.960700
vt 0.021762 0.960700
vt 0.478420 0.504043
vt 0.021762 0.504043
vt 0.021762 0.960700
vt 0.478420 0.960700
vt 0.193009 0.732372
vt 0.307173 0.732372
vt 0.307173 0.732372
vt 0.193009 0.732372
vt 0.307173 0.846536
vt 0.193009 0.846536
vt 0.307173 0.732372
vt 0.193009 0.732372
vt 0.307173 0.846536
vt 0.193009 0.846536
vt 0.307173 0.732372
vt 0.193009 0.732372
vt 0.307173 0.846536
vt 0.193009 0.846536
vt 0.544647 0.237742
vt 0.972708 0.237742
vt 0.972708 0.665802
vt 0.544647 0.665802
vt 0.544647 0.665802
vt 0.544647 0.237742
vt 0.972708 0.237742
vt 0.972708 0.665802
vt 0.193009 0.846536
vt 0.307173 0.846536
vt 0.544647 0.237742
vt 0.544647 0.665802
vt 0.972708 0.665802
vt 0.972708 0.237742
vt 0.122326 0.928216
vt 0.377856 0.928216
vt 0.399048 0.960700
vt 0.101134 0.960700
vt 0.445935 0.536527
vt 0.478420 0.504043
vt 0.193009 0.846536
vt 0.307173 0.846536
vt 0.054247 0.536527
vt 0.021762 0.504043
vt 0.021762 0.504043
vt 0.478420 0.504043
vt 0.478420 0.670474
vt 0.021762 0.670474
vt 0.021762 0.960700
vt 0.021762 0.504043
vt 0.188193 0.504043
vt 0.188194 0.960700
vt 0.193009 0.846536
vt 0.307173 0.846536
vt 0.021762 0.504043
vt 0.021762 0.960700
vt 0.188194 0.960700
vt 0.188194 0.504043
vt 0.101134 0.960700
vt 0.399048 0.960700
vt 0.354318 0.830916
vt 0.145863 0.830916
vt 0.478420 0.504043
vt 0.409856 0.511386
vt 0.193009 0.846536
vt 0.307173 0.846536
vt 0.021762 0.504043
vt 0.090326 0.511386
vt 0.090326 0.670474
vt 0.409856 0.670474
vt 0.409856 0.960700
vt 0.090326 0.960700
vt 0.188194 0.830916
vt 0.188194 0.511386
vt 0.478420 0.511386
vt 0.478420 0.830916
vt 0.193009 0.846536
vt 0.307173 0.846536
vt 0.188194 0.511386
vt 0.188194 0.830916
vt 0.478420 0.830916
vt 0.478420 0.511386
vn 0.000000 -1.000000 0.000000
vn 0.000000 -1.000000 0.000000
vn 0.000000 -1.000000 0.000000
vn 0.000000 -1.000000 0.000000
vn 0.000000 0.000000 1.000000
vn 0.000000 0.000000 1.000000
vn 0.000000 0.000000 1.000000
vn 0.000000 0.000000 1.000000
vn 0.000000 1.000000 -0.000000
vn 0.000000 1.000000 -0.000000
vn 0.000000 1.000000 -0.000000
vn 0.000000 1.000000 -0.000000
vn 0.000000 -0.000000 -1.000000
vn 0.000000 -0.000000 -1.000000
vn 0.000000 -0.000000 -1.000000
vn 0.000000 -0.000000 -1.000000
vn 1.000000 0.000000 0.000000
vn 1.000000 0.000000 0.000000
vn 1.000000 0.000000 0.000000
vn 1.000000 0.000000 0.000000
vn -1.000000 0.000000 0.000000
vn -1.000000 0.000000 0.000000
vn -1.000000 0.000000 0.000000
vn -1.000000 0.000000 0.000000
vn 0.000000 -1.000000 0.000000
vn 0.000000 -1.000000 0.000000
vn 0.000000 -1.000000 0.000000
vn 0.000000 -1.000000 0.000000
vn 0.000000 0.000000 1.000000
vn 0.000000 0.000000 1.000000
vn 0.000000 0.000000 1.000000
vn 0.000000 0.000000 1.000000
vn 0.000000 1.000000 -0.000000
vn 0.000000 1.000000 -0.000000
vn 0.000000 1.000000 -0.000000
vn 0.000000 1.000000 -0.000000
vn 0.000000 -0.000000 -1.000000
vn 0.000000 -0.000000 -1.000000
vn 0.000000 -0.000000 -1.000000
vn 0.000000 -0.000000 -1.000000
vn 0.791630 0.000000 0.611001
vn 0.791630 0.000000 0.611001
vn 0.791630 0.000000 0.611001
vn 0.791630 0.000000 0.611001
vn -0.791630 0.000000 0.611001
vn -0.791630 0.000000 0.611001
vn -0.791630 0.000000 0.611001
vn -0.791630 0.000000 0.611001
vn 0.000000 1.000000 -0.000000
vn 0.000000 1.000000 -0.000000
vn 0.000000 1.000000 -0.000000
vn 0.000000 1.000000 -0.000000
vn -0.000000 1.000000 -0.000000
vn -0.000000 1.000000 -0.000000
vn -0.000000 1.000000 -0.000000
vn -0.000000 1.000000 -0.000000
vn 0.000000 1.000000 -0.000000
vn 0.000000 1.000000 -0.000000
vn 0.000000 1.000000 -0.000000
vn 0.000000 1.000000 -0.000000
vn -0.000001 1.000000 -0.000000
vn -0.000001 1.000000 -0.000000
vn -0.000001 1.000000 -0.000000
vn -0.000001 1.000000 -0.000000
vn 0.000000 0.000000 1.000000
vn 0.000000 0.000000 1.000000
vn 0.000000 0.000000 1.000000
vn 0.000000 0.000000 1.000000
vn 0.791630 0.000000 0.611001
vn 0.791630 0.000000 0.611001
vn 0.791630 0.000000 0.611001
vn 0.791630 0.000000 0.611001
vn 0.000000 -0.000000 -1.000000
vn 0.000000 -0.000000 -1.000000
vn 0.000000 -0.000000 -1.000000
vn 0.000000 -0.000000 -1.000000
vn -0.791630 0.000000 0.611001
vn -0.791630 0.000000 0.611001
vn -0.791630 0.000000 0.611001
vn -0.791630 0.000000 0.611001
vn 0.000000 1.000000 -0.000000
vn 0.000000 1.000000 -0.000000
vn 0.000000 1.000000 -0.000000
vn 0.000000 1.000000 -0.000000
vn 0.000000 1.000000 -0.000000
vn 0.000000 1.000000 -0.000000
vn 0.000000 1.000000 -0.000000
vn 0.000000 1.000000 -0.000000
vn 0.000000 1.000000 -0.000000
vn 0.000000 1.000000 -0.000000
vn 0.000000 1.000000 -0.000000
vn 0.000000 1.000000 -0.000000
vn -0.000000 1.000000 -0.000000
vn -0.000000 1.000000 -0.000000
vn -0.000000 1.000000 -0.000000
vn -0.000000 1.000000 -0.000000
vn 0.000000 0.000000 1.000000
vn 0.000000 0.000000 1.000000
vn 0.000000 0.000000 1.000000
vn 0.000000 0.000000 1.000000
vn 0.791630 0.000000 0.611001
vn 0.791630 0.000000 0.611001
vn 0.791630 0.000000 0.611001
vn 0.791630 0.000000 0.611001
vn 0.000000 -0.000000 -1.000000
vn 0.000000 -0.000000 -1.000000
vn 0.000000 -0.000000 -1.000000
vn 0.000000 -0.000000 -1.000000
vn -0.791630 0.000000 0.611001
vn -0.791630 0.000000 0.611001
vn -0.791630 0.000000 0.611001
vn -0.791630 0.000000 0.611001
vn 0.000000 -0.985837 0.167704
vn 0.000000 -0.985837 0.167704
vn 0.000000 -0.985838 0.167704
vn 0.000000 -0.985838 0.167704
vn 0.046288 -0.998289 0.035726
vn 0.046288 -0.998289 0.035726
vn 0.046288 -0.998289 0.035726
vn 0.046288 -0.998289 0.035726
vn 0.000000 -0.985838 -0.167704
vn 0.000000 -0.985838 -0.167704
vn 0.000000 -0.985838 -0.167704
vn 0.000000 -0.985838 -0.167704
vn -0.046288 -0.998289 0.035726
vn -0.046288 -0.998289 0.035726
vn -0.046288 -0.998289 0.035726
vn -0.046288 -0.998289 0.035726
vn 0.000000 0.000000 1.000000
vn 0.000000 0.000000 1.000000
vn 0.000000 0.000000 1.000000
vn 0.000000 0.000000 1.000000
vn 0.791630 0.000000 0.611001
vn 0.791630 0.000000 0.611001
vn 0.791630 0.000000 0.611001
vn 0.791630 0.000000 0.611001
vn 0.000000 -0.000000 -1.000000
vn 0.000000 -0.000000 -1.000000
vn 0.000000 -0.000000 -1.000000
vn 0.000000 -0.000000 -1.000000
vn -0.791630 0.000000 0.611001
vn -0.791630 0.000000 0.611001
vn -0.791630 0.000000 0.611001
vn -0.791630 0.000000 0.611001
vn 0.000000 1.000000 -0.000000
vn 0.000000 1.000000 -0.000000
vn 0.000000 1.000000 -0.000000
vn 0.000000 1.000000 -0.000000
vn -0.000000 1.000000 -0.000000
vn -0.000000 1.000000 -0.000000
vn -0.000000 1.000000 -0.000000
vn -0.000000 1.000000 -0.000000
vn 0.000000 1.000000 -0.000000
vn 0.000000 1.000000 -0.000000
vn 0.000000 1.000000 -0.000000
vn 0.000000 1.000000 -0.000000
vn 0.000000 1.000000 -0.000000
vn 0.000000 1.000000 -0.000000
vn 0.000000 1.000000 -0.000000
vn 0.000000 1.000000 -0.000000
vn 0.000000 0.000000 1.000000
vn 0.000000 0.000000 1.000000
vn 0.000000 0.000000 1.000000
vn 0.000000 0.000000 1.000000
vn 0.791630 0.000000 0.611001
vn 0.791630 0.000000 0.611001
vn 0.791630 0.000000 0.611001
vn 0.791630 0.000000 0.611001
vn 0.000000 -0.000000 -1.000000
vn 0.000000 -0.000000 -1.000000
vn 0.000000 -0.000000 -1.000000
vn 0.000000 -0.000000 -1.000000
vn -0.791630 0.000000 0.611001
vn -0.791630 0.000000 0.611001
vn -0.791630 0.000000 0.611001
vn -0.791630 0.000000 0.611001
s off
g pCube3
usemtl lambert2SG
f 1/19/1 2/20/2 4/21/3 3/22/4
f 3/15/5 4/16/6 6/17/7 5/18/8
f 5/5/9 6/6/10 8/23/11 7/24/12
f 7/7/13 8/8/14 2/9/15 1/10/16
f 2/1/17 8/2/18 6/3/19 4/4/20
f 7/11/21 1/12/22 3/13/23 5/14/24
f 9/25/25 10/26/26 12/27/27 11/28/28
f 11/29/29 12/30/30 14/31/31 13/32/32
f 45/33/33 46/34/34 47/35/35 48/36/36
f 15/37/37 16/38/38 10/39/39 9/40/40
f 10/41/41 16/42/42 14/43/43 12/44/44
f 15/45/45 9/46/46 11/47/47 13/48/48
f 13/49/49 14/50/50 18/51/51 17/52/52
f 14/50/53 16/38/54 19/53/55 18/51/56
f 16/38/57 15/37/58 20/54/59 19/53/60
f 15/37/61 13/49/62 17/52/63 20/54/64
f 17/52/65 18/51/66 22/55/67 21/56/68
f 18/51/69 19/53/70 23/57/71 22/55/72
f 19/53/73 20/54/74 24/58/75 23/57/76
f 20/54/77 17/52/78 21/56/79 24/58/80
f 21/56/81 22/55/82 26/59/83 25/60/84
f 22/55/85 23/57/86 27/61/87 26/59/88
f 23/57/89 24/58/90 28/62/91 27/61/92
f 24/58/93 21/56/94 25/60/95 28/62/96
f 25/63/97 26/64/98 30/65/99 29/66/100
f 26/67/101 27/68/102 31/69/103 30/70/104
f 27/61/105 28/62/106 32/71/107 31/72/108
f 28/73/109 25/74/110 29/75/111 32/76/112
f 29/77/113 30/78/114 34/79/115 33/80/116
f 30/78/117 31/81/118 35/82/119 34/79/120
f 31/72/121 32/71/122 36/83/123 35/84/124
f 32/85/125 29/77/126 33/80/127 36/86/128
f 33/87/129 34/88/130 38/89/131 37/90/132
f 34/91/133 35/92/134 39/93/135 38/94/136
f 35/84/137 36/83/138 40/95/139 39/96/140
f 36/97/141 33/98/142 37/99/143 40/100/144
f 37/101/145 38/102/146 42/103/147 41/104/148
f 38/102/149 39/105/150 43/106/151 42/103/152
f 39/96/153 40/95/154 44/107/155 43/108/156
f 40/109/157 37/101/158 41/104/159 44/110/160
f 41/111/161 42/112/162 46/113/163 45/114/164
f 42/115/165 43/116/166 47/117/167 46/118/168
f 43/108/169 44/107/170 48/119/171 47/120/172
f 44/121/173 41/122/174 45/123/175 48/124/176
