# This file uses centimeters as units for non-parametric coordinates.

mtllib numberroll.mtl
g default
v -1.117000 0.139058 -0.427976
v -1.117000 -0.139058 -0.427976
v -1.117000 -0.364058 -0.264503
v -1.117000 -0.450000 -0.000000
v -1.117000 -0.364058 0.264504
v -1.117000 -0.139058 0.427976
v -1.117000 0.139058 0.427975
v -1.117000 0.364058 0.264503
v -1.117000 0.450000 -0.000000
v -1.117000 0.364058 -0.264504
v -1.617000 0.139058 -0.427976
v -1.617000 -0.139058 -0.427976
v -1.617000 -0.364058 -0.264503
v -1.617000 -0.450000 -0.000000
v -1.617000 -0.364058 0.264504
v -1.617000 -0.139058 0.427976
v -1.617000 0.139058 0.427975
v -1.617000 0.364058 0.264503
v -1.617000 0.450000 -0.000000
v -1.617000 0.364058 -0.264504
v -1.117000 -0.000000 -0.000000
v -1.617000 -0.000000 -0.000000
vt 0.880165 0.659758
vt 0.802039 0.602997
vt 0.705472 0.602997
vt 0.627347 0.659758
vt 0.597506 0.751600
vt 0.627347 0.843441
vt 0.705472 0.900202
vt 0.802040 0.900202
vt 0.880165 0.843441
vt 0.910006 0.751600
vt 0.110273 0.204576
vt 0.242302 0.203815
vt 0.242302 0.309536
vt 0.110273 0.308775
vt 0.375042 0.202342
vt 0.375042 0.311009
vt 0.497511 0.204737
vt 0.497511 0.308614
vt 0.114902 0.023857
vt 0.114902 0.137314
vt 0.239032 0.024591
vt 0.239032 0.130176
vt 0.133447 0.130176
vt 0.133447 0.024591
vt 0.243335 0.375670
vt 0.367199 0.379872
vt 0.367199 0.479256
vt 0.243335 0.483458
vt 0.498466 0.379872
vt 0.498466 0.479256
vt 0.001223 0.372612
vt 0.001223 0.486516
vt 0.880165 0.660817
vt 0.802039 0.604056
vt 0.705472 0.604056
vt 0.627347 0.660817
vt 0.597506 0.752658
vt 0.627347 0.844500
vt 0.705472 0.901261
vt 0.802040 0.901261
vt 0.880165 0.844500
vt 0.910006 0.752658
vt 0.753756 0.745350
vt 0.753756 0.746408
vt 0.115126 0.372612
vt 0.115126 0.486516
vt 0.135547 0.483458
vt 0.135547 0.375670
vt 0.267815 0.479256
vt 0.267815 0.379872
vt 0.399082 0.479256
vt 0.399082 0.379872
vt 0.006075 0.308775
vt 0.006075 0.204576
vt 0.136581 0.309536
vt 0.136581 0.203815
vt 0.266375 0.311009
vt 0.266375 0.202342
vt 0.393634 0.308614
vt 0.393634 0.204737
vt 0.001446 0.137314
vt 0.001446 0.023857
vn 0.000000 0.000000 -1.000000
vn 0.000000 0.000000 -1.000000
vn 0.000000 0.000000 -1.000000
vn 0.000000 0.000000 -1.000000
vn -0.000000 -0.587785 -0.809017
vn -0.000000 -0.587785 -0.809017
vn -0.000000 -0.587785 -0.809017
vn -0.000000 -0.587785 -0.809017
vn -0.000000 -0.951057 -0.309017
vn -0.000000 -0.951057 -0.309017
vn -0.000000 -0.951057 -0.309017
vn -0.000000 -0.951057 -0.309017
vn -0.000000 -0.951057 0.309014
vn -0.000000 -0.951057 0.309014
vn -0.000000 -0.951057 0.309014
vn -0.000000 -0.951057 0.309014
vn -0.000000 -0.587784 0.809018
vn -0.000000 -0.587784 0.809018
vn -0.000000 -0.587784 0.809018
vn -0.000000 -0.587784 0.809018
vn 0.000000 0.000001 1.000000
vn 0.000000 0.000001 1.000000
vn 0.000000 0.000001 1.000000
vn 0.000000 0.000001 1.000000
vn 0.000000 0.587785 0.809017
vn 0.000000 0.587785 0.809017
vn 0.000000 0.587785 0.809017
vn 0.000000 0.587785 0.809017
vn 0.000000 0.951056 0.309018
vn 0.000000 0.951056 0.309018
vn 0.000000 0.951056 0.309018
vn 0.000000 0.951056 0.309017
vn 0.000000 0.951057 -0.309017
vn 0.000000 0.951057 -0.309017
vn 0.000000 0.951057 -0.309017
vn 0.000000 0.951057 -0.309017
vn 0.000000 0.587785 -0.809017
vn 0.000000 0.587785 -0.809017
vn 0.000000 0.587785 -0.809017
vn 0.000000 0.587785 -0.809017
vn 1.000000 -0.000000 0.000000
vn 1.000000 -0.000000 0.000000
vn 1.000000 -0.000000 0.000000
vn 1.000000 -0.000000 0.000000
vn 1.000000 -0.000000 0.000000
vn 1.000000 -0.000000 0.000000
vn 1.000000 -0.000000 0.000000
vn 1.000000 -0.000000 0.000000
vn 1.000000 -0.000000 0.000000
vn 1.000000 -0.000000 0.000000
vn 1.000000 -0.000000 0.000000
vn -1.000000 0.000000 -0.000000
vn -1.000000 0.000000 -0.000000
vn -1.000000 0.000000 -0.000000
vn -1.000000 0.000000 -0.000000
vn -1.000000 0.000000 -0.000000
vn -1.000000 0.000000 -0.000000
vn -1.000000 0.000000 -0.000000
vn -1.000000 0.000000 -0.000000
vn -1.000000 0.000000 -0.000000
vn -1.000000 0.000000 -0.000000
vn -1.000000 0.000000 -0.000000
s 1
g pCylinder1
usemtl lambert3SG
f 1/11/1 2/14/2 11/54/3
f 11/54/3 2/14/2 12/53/4
s 2
f 2/12/5 3/13/6 12/56/7
f 12/56/7 3/13/6 13/55/8
s 3
f 3/15/9 4/16/10 13/58/11
f 13/58/11 4/16/10 14/57/12
s 4
f 4/17/13 5/18/14 14/60/15
f 14/60/15 5/18/14 15/59/16
s 5
f 5/19/17 6/20/18 15/62/19
f 15/62/19 6/20/18 16/61/20
s 6
f 6/21/21 7/22/22 16/24/23
f 16/24/23 7/22/22 17/23/24
s 7
f 7/45/25 8/46/26 17/31/27
f 17/31/27 8/46/26 18/32/28
s 8
f 8/25/29 9/28/30 18/48/31
f 18/48/31 9/28/30 19/47/32
s 9
f 9/26/33 10/27/34 19/50/35
f 19/50/35 10/27/34 20/49/36
s 10
f 10/29/37 1/30/38 20/52/39
f 20/52/39 1/30/38 11/51/40
s 11
f 2/2/41 1/1/42 21/43/43
f 3/3/44 2/2/41 21/43/43
f 4/4/45 3/3/44 21/43/43
f 5/5/46 4/4/45 21/43/43
f 6/6/47 5/5/46 21/43/43
f 7/7/48 6/6/47 21/43/43
f 8/8/49 7/7/48 21/43/43
f 9/9/50 8/8/49 21/43/43
f 10/10/51 9/9/50 21/43/43
f 1/1/42 10/10/51 21/43/43
s 12
f 11/41/52 12/40/53 22/44/54
f 12/40/53 13/39/55 22/44/54
f 13/39/55 14/38/56 22/44/54
f 14/38/56 15/37/57 22/44/54
f 15/37/57 16/36/58 22/44/54
f 16/36/58 17/35/59 22/44/54
f 17/35/59 18/34/60 22/44/54
f 18/34/60 19/33/61 22/44/54
f 19/33/61 20/42/62 22/44/54
f 20/42/62 11/41/52 22/44/54
