# This file uses centimeters as units for non-parametric coordinates.

mtllib Planet_skybox.mtl
g default
v -9.191500 -9.191500 9.191500
v 9.191500 -9.191500 9.191500
v -9.191500 9.191500 9.191500
v 9.191500 9.191500 9.191500
v -9.191500 9.191500 -9.191500
v 9.191500 9.191500 -9.191500
v -9.191500 -9.191500 -9.191500
v 9.191500 -9.191500 -9.191500
vt 0.307790 0.376969
vt 0.307790 0.622591
vt 0.062168 0.622591
vt 0.062168 0.376969
vt 0.920818 0.377000
vt 0.920818 0.619790
vt 0.678029 0.619790
vt 0.678029 0.377000
vt 0.368713 0.690523
vt 0.620002 0.690523
vt 0.620002 0.941812
vt 0.368713 0.941812
vt 0.485889 0.296378
vt 0.234600 0.296378
vt 0.234600 0.045089
vt 0.485889 0.045089
vt 0.835167 0.043077
vt 0.835167 0.285930
vt 0.592314 0.285930
vt 0.592314 0.043077
vt 0.364635 0.628694
vt 0.364635 0.383071
vt 0.610257 0.383071
vt 0.610257 0.628694
vn 0.000000 0.000000 -1.000000
vn 0.000000 0.000000 -1.000000
vn 0.000000 0.000000 -1.000000
vn 0.000000 0.000000 -1.000000
vn 0.000000 -1.000000 0.000000
vn 0.000000 -1.000000 0.000000
vn 0.000000 -1.000000 0.000000
vn 0.000000 -1.000000 0.000000
vn 0.000000 0.000000 1.000000
vn 0.000000 0.000000 1.000000
vn 0.000000 0.000000 1.000000
vn 0.000000 0.000000 1.000000
vn 0.000000 1.000000 0.000000
vn 0.000000 1.000000 0.000000
vn 0.000000 1.000000 0.000000
vn 0.000000 1.000000 0.000000
vn -1.000000 0.000000 0.000000
vn -1.000000 0.000000 0.000000
vn -1.000000 0.000000 0.000000
vn -1.000000 0.000000 0.000000
vn 1.000000 0.000000 0.000000
vn 1.000000 0.000000 0.000000
vn 1.000000 0.000000 0.000000
vn 1.000000 0.000000 0.000000
s off
g pCube1
usemtl lambert2SG
f 1/17/1 3/18/2 4/19/3 2/20/4
f 3/9/5 5/10/6 6/11/7 4/12/8
f 5/21/9 7/22/10 8/23/11 6/24/12
f 7/13/13 1/14/14 2/15/15 8/16/16
f 2/1/17 4/2/18 6/3/19 8/4/20
f 7/5/21 5/6/22 3/7/23 1/8/24
