# This file uses centimeters as units for non-parametric coordinates.

mtllib robothead.mtl
g default
v 0.073659 -0.177630 0.240945
v 0.096416 -0.044483 0.230014
v 0.123475 0.124869 0.162025
v 0.156517 0.257353 0.035322
v 0.000000 0.261724 0.041293
v 0.114939 0.306250 -0.101855
v 0.094097 -0.183645 0.199514
v 0.131020 -0.066829 0.171159
v 0.156570 0.089812 0.142760
v 0.177410 0.046403 0.092875
v 0.190520 0.205492 0.020302
v 0.200605 0.137863 -0.017952
v 0.155617 0.262560 -0.108631
v 0.174112 0.182457 -0.147673
v 0.084426 0.301621 -0.156015
v 0.000000 0.308774 -0.173283
v 0.102582 0.279004 -0.181735
v 0.119268 0.205704 -0.222312
v 0.163570 0.015251 -0.096877
v 0.081295 -0.227402 0.190569
v 0.000000 -0.246060 0.229616
v 0.000000 -0.235172 0.190652
v 0.058023 -0.236438 0.215287
v 0.096725 -0.194504 0.137246
v 0.000000 -0.205045 0.132417
v 0.140426 -0.090554 0.072033
v 0.000000 -0.146214 0.030404
v 0.121785 0.088535 -0.222312
v 0.000000 -0.037054 0.244157
v -0.073658 -0.177630 0.240945
v -0.096416 -0.044483 0.230014
v -0.123475 0.124869 0.162025
v 0.000000 0.129062 0.167754
v -0.156516 0.257353 0.035322
v -0.114938 0.306250 -0.101855
v 0.000000 0.312983 -0.100778
v -0.094097 -0.183645 0.199514
v -0.131020 -0.066829 0.171159
v -0.156569 0.089812 0.142760
v -0.177409 0.046403 0.092875
v -0.190519 0.205492 0.020302
v -0.200605 0.137863 -0.017952
v -0.155616 0.262560 -0.108631
v -0.174112 0.182457 -0.147673
v -0.084425 0.301621 -0.156015
v -0.102582 0.279004 -0.181735
v -0.119267 0.205704 -0.222312
v 0.000000 0.215964 -0.259723
v -0.163570 0.015251 -0.096877
v -0.140426 -0.090554 0.072033
v 0.000000 -0.179187 0.254202
v -0.121784 0.088535 -0.222312
v -0.058023 -0.236438 0.215287
v -0.081295 -0.227402 0.190569
v -0.096725 -0.194504 0.137246
v 0.000000 -0.040408 -0.138506
v 0.000000 0.098795 -0.259723
v 0.000000 0.288890 -0.204789
vt 0.144167 0.100088
vt 0.213634 0.164997
vt 0.143561 0.166250
vt 0.051399 0.363289
vt 0.106571 0.325894
vt 0.070691 0.375630
vt 0.074133 0.308960
vt 0.117128 0.250044
vt 0.141132 0.248602
vt 0.085215 0.242753
vt 0.120366 0.173993
vt 0.087795 0.176050
vt 0.120649 0.110726
vt 0.080062 0.113732
vt 0.120245 0.071482
vt 0.138797 0.073311
vt 0.080263 0.072380
vt 0.017223 0.171235
vt 0.035190 0.574501
vt 0.009079 0.590684
vt 0.009803 0.573626
vt 0.050964 0.544930
vt 0.010062 0.543389
vt 0.070691 0.375630
vt 0.145794 0.351208
vt 0.106571 0.325894
vt 0.141132 0.248602
vt 0.106571 0.325894
vt 0.141132 0.248602
vt 0.195497 0.267042
vt 0.143561 0.166250
vt 0.141132 0.248602
vt 0.106571 0.325894
vt 0.051399 0.363289
vt 0.070691 0.375630
vt 0.051399 0.363289
vt 0.106571 0.325894
vt 0.074133 0.308960
vt 0.117128 0.250044
vt 0.074133 0.308960
vt 0.106571 0.325894
vt 0.117128 0.250044
vt 0.106571 0.325894
vt 0.141132 0.248602
vt 0.074133 0.308960
vt 0.117128 0.250044
vt 0.085215 0.242753
vt 0.120366 0.173993
vt 0.085215 0.242753
vt 0.117128 0.250044
vt 0.141132 0.248602
vt 0.120366 0.173993
vt 0.117128 0.250044
vt 0.120366 0.173993
vt 0.141132 0.248602
vt 0.143561 0.166250
vt 0.085215 0.242753
vt 0.120366 0.173993
vt 0.087795 0.176050
vt 0.120649 0.110726
vt 0.087795 0.176050
vt 0.120366 0.173993
vt 0.143561 0.166250
vt 0.120649 0.110726
vt 0.120366 0.173993
vt 0.120649 0.110726
vt 0.143561 0.166250
vt 0.144167 0.100088
vt 0.087795 0.176050
vt 0.120649 0.110726
vt 0.080062 0.113732
vt 0.192390 0.079086
vt 0.138797 0.073311
vt 0.144167 0.100088
vt 0.120245 0.071482
vt 0.080062 0.113732
vt 0.120649 0.110726
vt 0.144167 0.100088
vt 0.120245 0.071482
vt 0.120649 0.110726
vt 0.120245 0.071482
vt 0.144167 0.100088
vt 0.138797 0.073311
vt 0.080062 0.113732
vt 0.120245 0.071482
vt 0.080263 0.072380
vt 0.087795 0.176050
vt 0.080062 0.113732
vt 0.017223 0.171235
vt 0.080263 0.072380
vt 0.017223 0.171235
vt 0.080062 0.113732
vt 0.087795 0.176050
vt 0.028706 0.281435
vt 0.085215 0.242753
vt 0.087795 0.176050
vt 0.017223 0.171235
vt 0.074133 0.308960
vt 0.085215 0.242753
vt 0.085581 0.014580
vt 0.027436 0.088217
vt 0.080263 0.072380
vt 0.017223 0.171235
vt 0.080263 0.072380
vt 0.094031 0.402568
vt 0.163319 0.041011
vt 0.137658 0.026232
vt 0.028706 0.281435
vt 0.028706 0.281435
vt 0.028706 0.281435
vt 0.024006 0.349382
vt 0.028706 0.281435
vt 0.037119 0.380133
vt 0.048374 0.396197
vt 0.064378 0.422076
vt 0.027436 0.088217
vt 0.027436 0.088217
vt 0.027436 0.088217
vt 0.025749 0.022626
vt 0.024254 0.597337
vt 0.030516 0.590647
vt 0.008956 0.601233
vt 0.056647 0.492951
vt 0.010071 0.491395
vt 0.046225 0.454946
vt 0.014924 0.443500
vt 0.070691 0.375630
vt 0.143561 0.166250
vt 0.144167 0.100088
vt 0.143561 0.166250
vt 0.144167 0.100088
vt 0.138797 0.073311
vt 0.080263 0.072380
vt 0.120245 0.071482
vt 0.138797 0.073311
vt 0.120245 0.071482
vt 0.080263 0.072380
vt 0.074133 0.308960
vt 0.024006 0.349382
vt 0.051399 0.363289
vt 0.024006 0.349382
vt 0.074133 0.308960
vt 0.051399 0.363289
vt 0.024006 0.349382
vt 0.037119 0.380133
vt 0.048374 0.396197
vt 0.051399 0.363289
vt 0.037119 0.380133
vt 0.051399 0.363289
vt 0.048374 0.396197
vt 0.070691 0.375630
vt 0.070691 0.375630
vt 0.048374 0.396197
vt 0.070691 0.375630
vt 0.024254 0.597337
vt 0.024254 0.597337
vt 0.030516 0.590647
vt 0.035190 0.574501
vt 0.030516 0.590647
vt 0.035190 0.574501
vt 0.050964 0.544930
vt 0.035190 0.574501
vt 0.050964 0.544930
vt 0.056647 0.492951
vt 0.050964 0.544930
vt 0.056647 0.492951
vt 0.056647 0.492951
vt 0.046225 0.454946
vt 0.046225 0.454946
vt 0.138797 0.073311
vn 0.403921 0.914690 -0.013764
vn 0.000000 0.838653 0.544666
vn 0.510493 0.740576 0.436972
vn 0.905994 -0.274887 0.321887
vn 0.532771 0.089330 0.841532
vn 0.557167 -0.207686 0.804010
vn 0.532771 0.089330 0.841532
vn 0.905994 -0.274887 0.321887
vn 0.915231 -0.179939 0.360519
vn 0.915231 -0.179939 0.360519
vn 0.820820 0.153177 0.550265
vn 0.532771 0.089330 0.841532
vn 0.397549 0.469270 0.788505
vn 0.532771 0.089330 0.841532
vn 0.820820 0.153177 0.550265
vn 0.820820 0.153177 0.550265
vn 0.915231 -0.179939 0.360519
vn 0.968172 -0.125099 0.216780
vn 0.968172 -0.125099 0.216780
vn 0.928720 0.310347 0.202889
vn 0.820820 0.153177 0.550265
vn 0.397549 0.469270 0.788505
vn 0.928720 0.310347 0.202889
vn 0.510493 0.740576 0.436972
vn 0.928720 0.310347 0.202889
vn 0.397549 0.469270 0.788505
vn 0.820820 0.153177 0.550265
vn 0.928720 0.310347 0.202889
vn 0.968172 -0.125099 0.216780
vn 0.999262 -0.015137 -0.035311
vn 0.999262 -0.015137 -0.035311
vn 0.830568 0.515645 -0.210397
vn 0.928720 0.310347 0.202889
vn 0.510493 0.740576 0.436972
vn 0.830568 0.515645 -0.210397
vn 0.403921 0.914690 -0.013764
vn 0.830568 0.515645 -0.210397
vn 0.510493 0.740576 0.436972
vn 0.928720 0.310347 0.202889
vn 0.830568 0.515645 -0.210397
vn 0.999262 -0.015137 -0.035311
vn 0.904223 0.081181 -0.419273
vn 0.904223 0.081181 -0.419273
vn 0.493224 0.635444 -0.594089
vn 0.830568 0.515645 -0.210397
vn 0.403921 0.914690 -0.013764
vn 0.493224 0.635444 -0.594089
vn 0.256511 0.907021 -0.333938
vn 0.493224 0.635444 -0.594089
vn 0.403921 0.914690 -0.013764
vn 0.830568 0.515645 -0.210397
vn 0.493224 0.635444 -0.594089
vn 0.904223 0.081181 -0.419273
vn 0.599734 0.239454 -0.763532
vn 0.776316 -0.503780 -0.378865
vn 0.904223 0.081181 -0.419273
vn 0.999262 -0.015137 -0.035311
vn 0.776316 -0.503780 -0.378865
vn 0.599734 0.239454 -0.763532
vn 0.904223 0.081181 -0.419273
vn 0.625126 -0.654821 -0.424767
vn 0.000000 -0.927975 -0.372643
vn 0.000000 -0.827463 -0.561520
vn 0.000000 -0.827463 -0.561520
vn 0.809360 -0.556236 -0.188515
vn 0.625126 -0.654821 -0.424767
vn 0.809360 -0.556236 -0.188515
vn 0.000000 -0.827463 -0.561520
vn 0.000000 -0.864667 -0.502345
vn -0.557167 -0.207686 0.804010
vn 0.000000 0.225595 0.974221
vn -0.532771 0.089330 0.841532
vn 0.000000 0.225595 0.974221
vn -0.397549 0.469270 0.788505
vn -0.532771 0.089330 0.841532
vn -0.397549 0.469270 0.788505
vn 0.000000 0.225595 0.974221
vn 0.000000 0.559789 0.828635
vn 0.000000 0.559789 0.828635
vn -0.510493 0.740576 0.436972
vn -0.397549 0.469270 0.788505
vn -0.532771 0.089330 0.841532
vn -0.905994 -0.274887 0.321887
vn -0.557167 -0.207686 0.804010
vn -0.905994 -0.274887 0.321887
vn -0.532771 0.089330 0.841532
vn -0.915231 -0.179939 0.360519
vn -0.820820 0.153177 0.550265
vn -0.915231 -0.179939 0.360519
vn -0.532771 0.089330 0.841532
vn -0.820820 0.153177 0.550265
vn -0.532771 0.089330 0.841532
vn -0.397549 0.469270 0.788505
vn -0.915231 -0.179939 0.360519
vn -0.820820 0.153177 0.550265
vn -0.968172 -0.125099 0.216780
vn -0.928720 0.310347 0.202889
vn -0.968172 -0.125099 0.216780
vn -0.820820 0.153177 0.550265
vn -0.397549 0.469270 0.788505
vn -0.928720 0.310347 0.202889
vn -0.820820 0.153177 0.550265
vn -0.928720 0.310347 0.202889
vn -0.397549 0.469270 0.788505
vn -0.510493 0.740576 0.436972
vn -0.968172 -0.125099 0.216780
vn -0.928720 0.310347 0.202889
vn -0.999262 -0.015137 -0.035311
vn -0.830568 0.515645 -0.210397
vn -0.999262 -0.015137 -0.035311
vn -0.928720 0.310347 0.202889
vn -0.510493 0.740576 0.436972
vn -0.830568 0.515645 -0.210397
vn -0.928720 0.310347 0.202889
vn -0.830568 0.515645 -0.210397
vn -0.510493 0.740576 0.436972
vn -0.403921 0.914690 -0.013764
vn -0.999262 -0.015137 -0.035311
vn -0.830568 0.515645 -0.210397
vn -0.904223 0.081181 -0.419273
vn 0.000000 0.991096 0.133153
vn -0.256511 0.907021 -0.333938
vn -0.403921 0.914690 -0.013764
vn -0.493224 0.635444 -0.594089
vn -0.904223 0.081181 -0.419273
vn -0.830568 0.515645 -0.210397
vn -0.403921 0.914690 -0.013764
vn -0.493224 0.635444 -0.594089
vn -0.830568 0.515645 -0.210397
vn -0.493224 0.635444 -0.594089
vn -0.403921 0.914690 -0.013764
vn -0.256511 0.907021 -0.333938
vn -0.904223 0.081181 -0.419273
vn -0.493224 0.635444 -0.594089
vn -0.599734 0.239454 -0.763532
vn -0.999262 -0.015137 -0.035311
vn -0.904223 0.081181 -0.419273
vn -0.776316 -0.503780 -0.378865
vn -0.599734 0.239454 -0.763532
vn -0.776316 -0.503780 -0.378865
vn -0.904223 0.081181 -0.419273
vn -0.999262 -0.015137 -0.035311
vn -0.809360 -0.556236 -0.188515
vn -0.968172 -0.125099 0.216780
vn -0.809360 -0.556236 -0.188515
vn -0.999262 -0.015137 -0.035311
vn -0.776316 -0.503780 -0.378865
vn -0.915231 -0.179939 0.360519
vn -0.968172 -0.125099 0.216780
vn -0.809360 -0.556236 -0.188515
vn 0.000000 0.315596 -0.948894
vn -0.626538 -0.301657 -0.718647
vn -0.599734 0.239454 -0.763532
vn -0.776316 -0.503780 -0.378865
vn -0.599734 0.239454 -0.763532
vn -0.626538 -0.301657 -0.718647
vn 0.557167 -0.207686 0.804010
vn 0.000000 0.225595 0.974221
vn 0.000000 -0.139870 0.990170
vn 0.000000 0.225595 0.974221
vn 0.557167 -0.207686 0.804010
vn 0.532771 0.089330 0.841532
vn 0.397549 0.469270 0.788505
vn 0.000000 0.225595 0.974221
vn 0.532771 0.089330 0.841532
vn 0.000000 0.225595 0.974221
vn 0.397549 0.469270 0.788505
vn 0.000000 0.559789 0.828635
vn 0.510493 0.740576 0.436972
vn 0.000000 0.559789 0.828635
vn 0.397549 0.469270 0.788505
vn 0.000000 0.559789 0.828635
vn 0.510493 0.740576 0.436972
vn 0.000000 0.838653 0.544666
vn 0.000000 0.838653 0.544666
vn 0.403921 0.914690 -0.013764
vn 0.000000 0.991096 0.133153
vn 0.256511 0.907021 -0.333938
vn 0.000000 0.991096 0.133153
vn 0.403921 0.914690 -0.013764
vn 0.000000 0.991096 0.133153
vn 0.256511 0.907021 -0.333938
vn 0.000000 0.944098 -0.329664
vn 0.599734 0.239454 -0.763532
vn 0.000000 0.712322 -0.701853
vn 0.493224 0.635444 -0.594089
vn 0.000000 0.712322 -0.701853
vn 0.256511 0.907021 -0.333938
vn 0.493224 0.635444 -0.594089
vn 0.000000 0.712322 -0.701853
vn 0.599734 0.239454 -0.763532
vn 0.000000 0.315596 -0.948894
vn 0.999262 -0.015137 -0.035311
vn 0.809360 -0.556236 -0.188515
vn 0.776316 -0.503780 -0.378865
vn 0.809360 -0.556236 -0.188515
vn 0.999262 -0.015137 -0.035311
vn 0.968172 -0.125099 0.216780
vn 0.809360 -0.556236 -0.188515
vn 0.968172 -0.125099 0.216780
vn 0.915231 -0.179939 0.360519
vn 0.915231 -0.179939 0.360519
vn 0.625126 -0.654821 -0.424767
vn 0.809360 -0.556236 -0.188515
vn 0.625126 -0.654821 -0.424767
vn 0.915231 -0.179939 0.360519
vn 0.905994 -0.274887 0.321887
vn 0.630735 -0.775975 0.005982
vn 0.625126 -0.654821 -0.424767
vn 0.905994 -0.274887 0.321887
vn 0.905994 -0.274887 0.321887
vn 0.411763 -0.837809 0.358507
vn 0.630735 -0.775975 0.005982
vn 0.411763 -0.837809 0.358507
vn 0.905994 -0.274887 0.321887
vn 0.557167 -0.207686 0.804010
vn 0.557167 -0.207686 0.804010
vn 0.000000 -0.877915 0.478816
vn 0.411763 -0.837809 0.358507
vn 0.000000 -0.877915 0.478816
vn 0.557167 -0.207686 0.804010
vn 0.000000 -0.139870 0.990170
vn 0.626557 -0.301651 -0.718633
vn 0.000000 0.315596 -0.948894
vn 0.599734 0.239454 -0.763532
vn 0.599734 0.239454 -0.763532
vn 0.776316 -0.503780 -0.378865
vn 0.626557 -0.301651 -0.718633
vn 0.000000 0.315596 -0.948894
vn 0.626557 -0.301651 -0.718633
vn 0.000000 -0.315843 -0.948811
vn 0.256511 0.907021 -0.333938
vn 0.000000 0.712322 -0.701853
vn 0.000000 0.944098 -0.329664
vn 0.411763 -0.837809 0.358507
vn 0.000000 -0.927975 -0.372643
vn 0.630735 -0.775975 0.005982
vn 0.000000 -0.927975 -0.372643
vn 0.411763 -0.837809 0.358507
vn 0.000000 -0.877915 0.478816
vn 0.000000 -0.927975 -0.372643
vn 0.625126 -0.654821 -0.424767
vn 0.630735 -0.775975 0.005982
vn 0.000000 -0.864667 -0.502345
vn 0.776316 -0.503780 -0.378865
vn 0.809360 -0.556236 -0.188515
vn 0.776316 -0.503780 -0.378865
vn 0.000000 -0.864667 -0.502345
vn 0.000000 -0.794076 -0.607818
vn 0.626557 -0.301651 -0.718633
vn 0.776316 -0.503780 -0.378865
vn 0.000000 -0.794076 -0.607818
vn 0.626557 -0.301651 -0.718633
vn 0.000000 -0.794076 -0.607818
vn 0.000000 -0.315843 -0.948811
vn 0.000000 0.225595 0.974221
vn -0.557167 -0.207686 0.804010
vn 0.000000 -0.139870 0.990170
vn -0.510493 0.740576 0.436972
vn 0.000000 0.559789 0.828635
vn 0.000000 0.838653 0.544666
vn 0.000000 0.838653 0.544666
vn -0.403921 0.914690 -0.013764
vn -0.510493 0.740576 0.436972
vn -0.403921 0.914690 -0.013764
vn 0.000000 0.838653 0.544666
vn 0.000000 0.991096 0.133153
vn -0.256511 0.907021 -0.333938
vn 0.000000 0.991096 0.133153
vn 0.000000 0.944098 -0.329664
vn 0.000000 0.712322 -0.701853
vn -0.599734 0.239454 -0.763532
vn -0.493224 0.635444 -0.594089
vn -0.256511 0.907021 -0.333938
vn 0.000000 0.712322 -0.701853
vn -0.493224 0.635444 -0.594089
vn -0.599734 0.239454 -0.763532
vn 0.000000 0.712322 -0.701853
vn 0.000000 0.315596 -0.948894
vn -0.915231 -0.179939 0.360519
vn -0.625126 -0.654821 -0.424767
vn -0.905994 -0.274887 0.321887
vn -0.625126 -0.654821 -0.424767
vn -0.915231 -0.179939 0.360519
vn -0.809360 -0.556236 -0.188515
vn -0.905994 -0.274887 0.321887
vn -0.625126 -0.654821 -0.424767
vn -0.630735 -0.775975 0.006012
vn -0.411763 -0.837809 0.358507
vn -0.905994 -0.274887 0.321887
vn -0.630735 -0.775975 0.006012
vn -0.905994 -0.274887 0.321887
vn -0.411763 -0.837809 0.358507
vn -0.557167 -0.207686 0.804010
vn 0.000000 -0.877915 0.478816
vn -0.557167 -0.207686 0.804010
vn -0.411763 -0.837809 0.358507
vn -0.557167 -0.207686 0.804010
vn 0.000000 -0.877915 0.478816
vn 0.000000 -0.139870 0.990170
vn -0.626538 -0.301657 -0.718647
vn 0.000000 0.315596 -0.948894
vn 0.000000 -0.315843 -0.948811
vn -0.411763 -0.837809 0.358507
vn 0.000000 -0.927975 -0.372643
vn 0.000000 -0.877915 0.478816
vn 0.000000 -0.927975 -0.372643
vn -0.411763 -0.837809 0.358507
vn -0.630735 -0.775975 0.006012
vn -0.625126 -0.654821 -0.424767
vn 0.000000 -0.927975 -0.372643
vn -0.630735 -0.775975 0.006012
vn 0.000000 -0.927975 -0.372643
vn -0.625126 -0.654821 -0.424767
vn 0.000000 -0.827463 -0.561520
vn -0.809360 -0.556236 -0.188515
vn 0.000000 -0.827463 -0.561520
vn -0.625126 -0.654821 -0.424767
vn 0.000000 -0.827463 -0.561520
vn -0.809360 -0.556236 -0.188515
vn 0.000000 -0.864667 -0.502345
vn -0.776316 -0.503780 -0.378865
vn 0.000000 -0.864667 -0.502345
vn -0.809360 -0.556236 -0.188515
vn 0.000000 -0.864667 -0.502345
vn -0.776316 -0.503780 -0.378865
vn 0.000000 -0.794076 -0.607818
vn 0.000000 -0.794076 -0.607818
vn -0.776316 -0.503780 -0.378865
vn -0.626538 -0.301657 -0.718647
vn 0.000000 -0.315843 -0.948811
vn 0.000000 -0.794076 -0.607818
vn -0.626538 -0.301657 -0.718647
vn 0.000000 0.712322 -0.701853
vn -0.256511 0.907021 -0.333938
vn 0.000000 0.944098 -0.329664
s off
g polySurface71 EM_208_heavy1:Mesh
usemtl EM_208_heavy1:EM208heavy
f 6/1/1 5/2/2 4/3/3
f 7/4/4 2/5/5 1/6/6
f 2/5/7 7/4/8 8/7/9
f 8/7/10 9/8/11 2/5/12
f 3/9/13 2/5/14 9/8/15
f 9/8/16 8/7/17 10/10/18
f 10/10/19 11/11/20 9/8/21
f 3/9/22 11/11/23 4/3/24
f 11/11/25 3/9/26 9/8/27
f 11/11/28 10/10/29 12/12/30
f 12/12/31 13/13/32 11/11/33
f 4/3/34 13/13/35 6/1/36
f 13/13/37 4/3/38 11/11/39
f 13/13/40 12/12/41 14/14/42
f 14/14/43 17/15/44 13/13/45
f 6/1/46 17/15/47 15/16/48
f 17/15/49 6/1/50 13/13/51
f 17/15/52 14/14/53 18/17/54
f 19/18/55 14/14/56 12/12/57
f 19/18/58 18/17/59 14/14/60
f 24/19/61 22/20/62 25/21/63
f 25/21/64 26/22/65 24/19/66
f 26/22/67 25/21/68 27/23/69
f 30/24/70 29/25/71 31/26/72
f 29/25/73 32/27/74 31/28/75
f 32/29/76 29/25/77 33/30/78
f 33/30/79 34/31/80 32/32/81
f 31/33/82 37/34/83 30/35/84
f 37/36/85 31/37/86 38/38/87
f 39/39/88 38/40/89 31/41/90
f 39/42/91 31/43/92 32/44/93
f 38/45/94 39/46/95 40/47/96
f 41/48/97 40/49/98 39/50/99
f 32/51/100 41/52/101 39/53/102
f 41/54/103 32/55/104 34/56/105
f 40/57/106 41/58/107 42/59/108
f 43/60/109 42/61/110 41/62/111
f 34/63/112 43/64/113 41/65/114
f 43/66/115 34/67/116 35/68/117
f 42/69/118 43/70/119 44/71/120
f 36/72/121 45/73/122 35/74/123
f 46/75/124 44/76/125 43/77/126
f 35/78/127 46/79/128 43/80/129
f 46/81/130 35/82/131 45/83/132
f 44/84/133 46/85/134 47/86/135
f 42/87/136 44/88/137 49/89/138
f 47/90/139 49/91/140 44/92/141
f 42/93/142 50/94/143 40/95/144
f 50/94/145 42/96/146 49/97/147
f 38/98/148 40/99/149 50/94/150
f 48/100/151 52/101/152 47/102/153
f 49/103/154 47/104/155 52/101/156
f 1/6/157 29/25/158 51/105/159
f 29/25/160 1/6/161 2/5/162
f 3/9/163 29/25/164 2/5/165
f 29/25/166 3/9/167 33/30/168
f 4/3/169 33/30/170 3/9/171
f 33/30/172 4/3/173 5/2/174
f 5/2/175 6/1/176 36/72/177
f 15/16/178 36/72/179 6/1/180
f 36/72/181 15/16/182 16/106/183
f 18/17/184 58/107/185 17/15/186
f 58/107/187 15/16/188 17/15/189
f 58/107/190 18/17/191 48/100/192
f 12/12/193 26/108/194 19/18/195
f 26/109/196 12/12/197 10/10/198
f 26/110/199 10/10/200 8/7/201
f 8/7/202 24/111/203 26/112/204
f 24/111/205 8/7/206 7/4/207
f 20/113/208 24/111/209 7/4/210
f 7/4/211 23/114/212 20/113/213
f 23/114/214 7/4/215 1/6/216
f 1/6/217 21/115/218 23/114/219
f 21/115/220 1/6/221 51/105/222
f 28/116/223 48/100/224 18/17/225
f 18/17/226 19/18/227 28/117/228
f 48/100/229 28/118/230 57/119/231
f 15/16/232 58/107/233 16/106/234
f 23/120/235 22/20/236 20/121/237
f 22/20/238 23/120/239 21/122/240
f 22/20/241 24/19/242 20/121/243
f 27/23/244 19/123/245 26/22/246
f 19/123/247 27/23/248 56/124/249
f 28/125/250 19/123/251 56/124/252
f 28/125/253 56/124/254 57/126/255
f 29/25/256 30/127/257 51/105/258
f 34/128/259 33/30/260 5/2/261
f 5/2/262 35/129/263 34/130/264
f 35/131/265 5/2/266 36/72/267
f 45/132/268 36/72/269 16/106/270
f 58/107/271 47/133/272 46/134/273
f 45/135/274 58/107/275 46/136/276
f 47/137/277 58/107/278 48/100/279
f 38/138/280 55/139/281 37/140/282
f 55/141/283 38/142/284 50/94/285
f 37/143/286 55/144/287 54/145/288
f 53/146/289 37/147/290 54/148/291
f 37/149/292 53/150/293 30/151/294
f 21/115/295 30/152/296 53/153/297
f 30/154/298 21/115/299 51/105/300
f 52/101/301 48/100/302 57/119/303
f 53/155/304 22/20/305 21/122/306
f 22/20/307 53/156/308 54/157/309
f 55/158/310 22/20/311 54/159/312
f 22/20/313 55/160/314 25/21/315
f 50/161/316 25/21/317 55/162/318
f 25/21/319 50/163/320 27/23/321
f 49/164/322 27/23/323 50/165/324
f 27/23/325 49/166/326 56/124/327
f 56/124/328 49/167/329 52/168/330
f 57/126/331 56/124/332 52/169/333
f 58/107/334 45/170/335 16/106/336
