# This file uses centimeters as units for non-parametric coordinates.

mtllib up.mtl
g default
v 8.490393 16.980786 -8.490380
v 8.490393 16.980786 8.490393
v -8.490380 16.980786 -8.490380
v -8.490380 16.980786 8.490393
vt 1.000000 0.000000
vt 1.000000 1.000000
vt 0.000000 1.000000
vt 0.000000 0.000000
vn 0.000000 -1.000000 0.000000
vn 0.000000 -1.000000 0.000000
vn 0.000000 -1.000000 0.000000
vn 0.000000 -1.000000 0.000000
s off
g polySurface6 pPlane7
usemtl lambert7SG
f 1/1/1 2/2/2 4/3/3 3/4/4
