# This file uses centimeters as units for non-parametric coordinates.

mtllib vaultstick.mtl
g default
v -3.008117 -0.504831 0.692254
v -3.008117 0.451159 0.692254
v -3.008117 0.392928 -0.115617
v -3.008117 -0.446602 -0.115617
v 1.983093 -0.446602 -0.115617
v 1.983093 0.392928 -0.115617
v 3.479343 0.451159 0.692254
v 3.479343 -0.504831 0.692254
vt 0.428564 0.716481
vt 0.428564 0.779738
vt 0.418375 0.779738
vt 0.418375 0.716481
vt 0.409460 0.779738
vt 0.409460 0.716481
vt 0.398846 0.716481
vt 0.398846 0.779738
vt 0.389931 0.779738
vt 0.389931 0.716481
vt 0.409460 0.697801
vt 0.398846 0.697801
vn 0.000000 0.000000 1.000000
vn 0.000000 0.000000 1.000000
vn 0.000000 0.000000 1.000000
vn 0.000000 0.000000 1.000000
vn 0.000000 -0.997415 -0.071864
vn 0.000000 -0.997415 -0.071864
vn 0.000000 -0.997415 -0.071864
vn 0.000000 -0.997415 -0.071864
vn 0.000000 0.997415 -0.071864
vn 0.000000 0.997415 -0.071864
vn 0.000000 0.997415 -0.071864
vn 0.000000 0.997415 -0.071864
vn 0.000000 0.000000 -1.000000
vn 0.000000 0.000000 -1.000000
vn 0.000000 0.000000 -1.000000
vn 0.000000 0.000000 -1.000000
vn 0.475113 0.000000 -0.879925
vn 0.475113 0.000000 -0.879925
vn 0.475113 0.000000 -0.879925
vn 0.475113 0.000000 -0.879925
s off
g polySurface61 polySurface49
usemtl initialShadingGroup
f 7/1/1 2/2/2 1/3/3 8/4/4
f 8/4/5 1/3/6 4/5/7 5/6/8
f 6/7/9 3/8/10 2/9/11 7/10/12
f 5/6/13 4/5/14 3/8/15 6/7/16
f 8/11/17 5/6/18 6/7/19 7/12/20
