# This file uses centimeters as units for non-parametric coordinates.

mtllib vaultdoor.mtl
g default
v 3.627276 6.067872 -1.246479
v -6.546644 6.067872 -1.150056
v 3.627276 4.444802 -1.246479
v -6.546644 4.444802 -1.150056
v 3.627276 4.607109 -2.150766
v -4.810764 4.607109 -2.150777
v -4.810764 5.905565 -2.150777
v 3.627276 5.905565 -2.150766
v 3.627276 4.836571 -1.957927
v 3.627276 5.676101 -1.957927
v 3.627276 5.734332 -1.246479
v 3.627276 4.778342 -1.246479
v 3.627276 -6.105106 -1.246479
v -6.546634 -6.105106 -1.150056
v 3.627276 -4.482046 -1.246479
v -6.546634 -4.482046 -1.150056
v 3.627276 -4.644352 -2.150766
v -4.810764 -4.644352 -2.150777
v -4.810764 -5.942800 -2.150777
v 3.627276 -5.942800 -2.150766
v 3.627276 -5.771566 -1.246479
v 3.627276 -5.713336 -1.957927
v 3.627276 -4.873816 -1.957927
v 3.627276 -4.815577 -1.246479
v 3.254556 3.741308 -1.338048
v 3.254556 -3.778543 -1.338048
v 1.189316 -3.778543 -1.338048
v 1.189316 3.741308 -1.338048
v 0.845626 -4.368944 -1.150056
v 0.845626 4.331709 -1.150056
v 3.598246 4.331709 -1.150056
v 3.598246 -4.368944 -1.150056
v 5.315336 7.806904 -1.150056
v -5.680154 7.806904 -1.150056
v 6.484256 6.319223 -1.150056
v 6.484256 -6.356458 -1.150056
v -6.849074 6.319223 -1.150056
v -6.849074 -6.356458 -1.150056
v 5.315336 -8.146036 -1.150056
v -5.680154 -8.146036 -1.150056
v -5.680154 -8.146036 -0.209938
v 5.315336 -8.146036 -0.209938
v -6.849074 -6.356458 -0.209938
v -6.849074 6.319223 -0.209938
v 6.484256 -6.356458 -0.209938
v 6.484256 6.319223 -0.209938
v -5.680154 7.806904 -0.209938
v 5.315336 7.806904 -0.209938
v 2.624856 -0.167771 -1.317446
v 2.624026 0.132334 -1.317446
v 2.387656 0.344016 -1.317446
v 2.054206 0.343268 -1.317446
v 1.819016 0.130525 -1.317446
v 1.819846 -0.169579 -1.317446
v 2.056216 -0.381250 -1.317446
v 2.389666 -0.380503 -1.317446
v 1.969956 -0.569439 -1.317446
v 1.609916 -0.248148 -1.317446
v 1.609916 0.208159 -1.317446
v 1.966896 0.532204 -1.317446
v 2.473916 0.532204 -1.317446
v 2.833956 0.210913 -1.317446
v 2.476976 -0.569439 -1.317446
v 2.833956 -0.245405 -1.317446
v 2.833956 -0.245405 -1.598736
v 2.833956 0.210913 -1.598736
v 2.473916 0.532204 -1.598736
v 1.966896 0.532204 -1.598736
v 1.609916 0.208159 -1.598736
v 1.609916 -0.248148 -1.598736
v 1.969956 -0.569439 -1.598736
v 2.476976 -0.569439 -1.598736
v 2.389666 -0.380503 -1.598736
v 2.056216 -0.381250 -1.598736
v 1.819846 -0.169579 -1.598736
v 1.819016 0.130525 -1.598736
v 2.054206 0.343268 -1.598736
v 2.387656 0.344016 -1.598736
v 2.624026 0.132334 -1.598736
v 2.624856 -0.167771 -1.598736
v -4.947474 -7.072957 1.175078
v 4.582656 -7.072957 1.175078
v -5.960614 -5.521879 1.168969
v -5.960614 5.464520 1.168969
v 5.595796 -5.521879 1.168969
v 5.595796 5.464530 1.168969
v 4.582656 6.753941 1.175078
v -4.947474 6.753941 1.175078
v 5.315336 7.806904 -0.277141
v -5.680154 7.806904 -0.277141
v 6.484256 6.319223 -0.277141
v 6.484256 -6.356458 -0.277141
v -6.849074 6.319223 -0.277141
v -6.849074 -6.356458 -0.277141
v 5.315336 -8.146036 -0.277141
v -5.680154 -8.146036 -0.277141
v 3.598246 -4.368944 1.165429
v 3.598246 4.331709 1.165429
v 0.845626 4.331709 1.165429
v 0.845626 -4.368944 1.165429
v 1.189316 3.741308 1.353430
v 1.189316 -3.778543 1.353430
v 3.254556 -3.778543 1.353430
v 3.254556 3.741308 1.353430
v -4.947474 6.753941 1.175078
v 4.582656 6.753941 1.175078
v 5.595796 5.464530 1.168969
v 5.595796 -5.521879 1.168969
v -5.960614 5.464520 1.168969
v -5.960614 -5.521879 1.168969
v 4.582656 -7.072957 1.175078
v -4.947474 -7.072957 1.175078
vt 0.423554 0.840594
vt 0.417490 0.840594
vt 0.417490 0.784413
vt 0.423552 0.784413
vt 0.407604 0.852798
vt 0.407604 0.840594
vt 0.417490 0.852798
vt 0.401539 0.784413
vt 0.407604 0.784413
vt 0.401370 0.840594
vt 0.070591 0.589575
vt 0.066090 0.592980
vt 0.049620 0.592980
vt 0.045118 0.589575
vt 0.073776 0.605541
vt 0.067232 0.605541
vt 0.048478 0.605541
vt 0.041934 0.605541
vt 0.426083 0.784413
vt 0.432160 0.784413
vt 0.432160 0.840594
vt 0.425914 0.840594
vt 0.432160 0.852547
vt 0.441842 0.840594
vt 0.441842 0.852547
vt 0.447918 0.840594
vt 0.441842 0.784413
vt 0.447916 0.784413
vt 0.081526 0.589248
vt 0.085644 0.592362
vt 0.084599 0.603851
vt 0.078615 0.603851
vt 0.104823 0.589248
vt 0.100707 0.592362
vt 0.107736 0.603851
vt 0.101752 0.603851
vt 0.414638 0.951973
vt 0.414638 0.868935
vt 0.441848 0.868935
vt 0.441848 0.951973
vt 0.451179 0.856202
vt 0.451179 0.964706
vt 0.405307 0.964706
vt 0.405307 0.856202
vt 0.242874 0.550296
vt 0.243154 0.557716
vt 0.186375 0.557716
vt 0.186375 0.550296
vt 0.168170 0.557716
vt 0.168170 0.550296
vt 0.261078 0.550296
vt 0.261359 0.557716
vt 0.111481 0.557716
vt 0.111481 0.550296
vt 0.095503 0.557716
vt 0.095503 0.550296
vt 0.317801 0.550296
vt 0.317801 0.557716
vt 0.333640 0.550296
vt 0.333921 0.557716
vt 0.038945 0.557716
vt 0.038945 0.550296
vt 0.289028 0.833727
vt 0.298668 0.817328
vt 0.389349 0.817328
vt 0.398989 0.833727
vt 0.289028 0.949880
vt 0.398989 0.949880
vt 0.298668 0.963512
vt 0.389349 0.963512
vt 0.295341 0.673071
vt 0.293452 0.673882
vt 0.293458 0.670786
vt 0.295226 0.671508
vt 0.296455 0.674085
vt 0.295638 0.676075
vt 0.297915 0.673990
vt 0.298734 0.676081
vt 0.298991 0.673095
vt 0.300927 0.673895
vt 0.299050 0.671677
vt 0.300933 0.670799
vt 0.297953 0.670614
vt 0.298747 0.668605
vt 0.296424 0.670461
vt 0.295651 0.668600
vt 0.291509 0.669972
vt 0.290007 0.669216
vt 0.294302 0.664861
vt 0.294853 0.666657
vt 0.300384 0.665163
vt 0.299561 0.666657
vt 0.304862 0.669275
vt 0.302875 0.670000
vt 0.304442 0.675450
vt 0.302875 0.674709
vt 0.300215 0.679456
vt 0.299532 0.678023
vt 0.294180 0.679626
vt 0.294824 0.678023
vt 0.289955 0.675270
vt 0.291509 0.674680
vt 0.205212 0.535235
vt 0.245235 0.535235
vt 0.245235 0.542834
vt 0.205212 0.542834
vt 0.197419 0.535235
vt 0.197419 0.542834
vt 0.253637 0.535235
vt 0.253637 0.542834
vt 0.145159 0.535235
vt 0.145159 0.542834
vt 0.079215 0.535235
vt 0.079215 0.542834
vt 0.311874 0.535235
vt 0.311874 0.542834
vt 0.319115 0.535235
vt 0.319115 0.542834
vt 0.038257 0.535235
vt 0.038257 0.542834
vt 0.414638 0.868935
vt 0.441848 0.868935
vt 0.451179 0.856202
vt 0.405307 0.856202
vt 0.414638 0.951973
vt 0.414638 0.868935
vt 0.405307 0.856202
vt 0.405307 0.964706
vt 0.405307 0.964706
vt 0.451179 0.964706
vt 0.441848 0.951973
vt 0.414638 0.951973
vt 0.441848 0.868935
vt 0.441848 0.951973
vt 0.451179 0.964706
vt 0.451179 0.856202
vt 0.414638 0.951973
vt 0.441848 0.951973
vt 0.441848 0.868935
vt 0.414638 0.868935
vt 0.290298 0.799707
vt 0.385504 0.799707
vt 0.377158 0.811510
vt 0.298645 0.811510
vt 0.290298 0.699140
vt 0.385504 0.699140
vt 0.298645 0.684942
vt 0.377158 0.684942
vn -0.000903 -0.985656 -0.168767
vn -0.000903 -0.985656 -0.168767
vn -0.000903 -0.985656 -0.168767
vn -0.000903 -0.985656 -0.168767
vn -0.499431 0.000000 -0.866354
vn -0.499431 0.000000 -0.866354
vn -0.499431 0.000000 -0.866354
vn -0.499431 0.000000 -0.866354
vn -0.000903 0.985656 -0.168767
vn -0.000903 0.985656 -0.168767
vn -0.000903 0.985656 -0.168767
vn -0.000903 0.985656 -0.168767
vn 0.000000 0.000000 -1.000000
vn 0.000000 0.000000 -1.000000
vn 0.000000 0.000000 -1.000000
vn 0.000000 0.000000 -1.000000
vn 1.000000 0.000000 0.000000
vn 1.000000 0.000000 0.000000
vn 1.000000 0.000000 0.000000
vn 1.000000 0.000000 0.000000
vn 1.000000 0.000000 0.000000
vn 1.000000 0.000000 0.000000
vn 1.000000 0.000000 0.000000
vn 1.000000 0.000000 0.000000
vn 1.000000 0.000000 0.000000
vn 1.000000 0.000000 0.000000
vn 1.000000 0.000000 0.000000
vn 1.000000 0.000000 0.000000
vn -0.000903 0.985656 -0.168767
vn -0.000903 0.985656 -0.168767
vn -0.000903 0.985656 -0.168767
vn -0.000903 0.985656 -0.168767
vn -0.499431 0.000000 -0.866354
vn -0.499431 0.000000 -0.866354
vn -0.499431 0.000000 -0.866354
vn -0.499431 0.000000 -0.866354
vn -0.000903 -0.985656 -0.168767
vn -0.000903 -0.985656 -0.168767
vn -0.000903 -0.985656 -0.168767
vn -0.000903 -0.985656 -0.168767
vn 0.000000 0.000000 -1.000000
vn 0.000000 0.000000 -1.000000
vn 0.000000 0.000000 -1.000000
vn 0.000000 0.000000 -1.000000
vn 1.000000 0.000000 0.000000
vn 1.000000 0.000000 0.000000
vn 1.000000 0.000000 0.000000
vn 1.000000 0.000000 0.000000
vn 1.000000 0.000000 0.000000
vn 1.000000 0.000000 0.000000
vn 1.000000 0.000000 0.000000
vn 1.000000 0.000000 0.000000
vn 1.000000 0.000000 0.000000
vn 1.000000 0.000000 0.000000
vn 1.000000 0.000000 0.000000
vn 1.000000 0.000000 0.000000
vn 0.000000 0.000000 -1.000000
vn 0.000000 0.000000 -1.000000
vn 0.000000 0.000000 -1.000000
vn 0.000000 0.000000 -1.000000
vn -0.479910 0.000000 -0.877318
vn -0.479910 0.000000 -0.877318
vn -0.479910 0.000000 -0.877318
vn -0.479910 0.000000 -0.877318
vn 0.000000 0.303422 -0.952856
vn 0.000000 0.303422 -0.952856
vn 0.000000 0.303422 -0.952856
vn 0.000000 0.303422 -0.952856
vn 0.479910 0.000000 -0.877318
vn 0.479910 0.000000 -0.877318
vn 0.479910 0.000000 -0.877318
vn 0.479910 0.000000 -0.877318
vn 0.000000 -0.303422 -0.952856
vn 0.000000 -0.303422 -0.952856
vn 0.000000 -0.303422 -0.952856
vn 0.000000 -0.303422 -0.952856
vn 0.000000 -1.000000 0.000000
vn 0.000000 -1.000000 0.000000
vn 0.000000 -1.000000 0.000000
vn 0.000000 -1.000000 0.000000
vn -0.837223 -0.546862 0.000000
vn -0.837223 -0.546862 0.000000
vn -0.837223 -0.546862 0.000000
vn -0.837223 -0.546862 0.000000
vn 0.837223 -0.546862 0.000000
vn 0.837223 -0.546862 0.000000
vn 0.837223 -0.546862 0.000000
vn 0.837223 -0.546862 0.000000
vn -1.000000 0.000000 0.000000
vn -1.000000 0.000000 0.000000
vn -1.000000 0.000000 0.000000
vn -1.000000 0.000000 0.000000
vn -0.786309 0.617833 0.000000
vn -0.786309 0.617833 0.000000
vn -0.786309 0.617833 0.000000
vn -0.786309 0.617833 0.000000
vn 1.000000 0.000000 0.000000
vn 1.000000 0.000000 0.000000
vn 1.000000 0.000000 0.000000
vn 1.000000 0.000000 0.000000
vn 0.786309 0.617833 0.000000
vn 0.786309 0.617833 0.000000
vn 0.786309 0.617833 0.000000
vn 0.786309 0.617833 0.000000
vn 0.000000 1.000000 0.000000
vn 0.000000 1.000000 0.000000
vn 0.000000 1.000000 0.000000
vn 0.000000 1.000000 0.000000
vn 0.000000 0.000000 -1.000000
vn 0.000000 0.000000 -1.000000
vn 0.000000 0.000000 -1.000000
vn 0.000000 0.000000 -1.000000
vn 0.000000 0.000000 -1.000000
vn 0.000000 0.000000 -1.000000
vn 0.000000 0.000000 -1.000000
vn 0.000000 0.000000 -1.000000
vn 0.000000 0.000000 -1.000000
vn 0.000000 0.000000 -1.000000
vn 0.000000 0.000000 -1.000000
vn 0.000000 0.000000 -1.000000
vn -0.909511 0.415679 0.000000
vn -0.546426 0.249726 -0.799410
vn -0.221137 0.589032 -0.777264
vn -0.351490 0.936192 0.000000
vn -0.907276 -0.420536 0.000000
vn -0.545179 -0.252683 -0.799331
vn -0.546426 0.249726 -0.799410
vn -0.909511 0.415679 0.000000
vn -0.545179 -0.252683 -0.799331
vn -0.907276 -0.420536 0.000000
vn -0.347173 -0.937801 0.000000
vn -0.218486 -0.590211 -0.777120
vn -0.218486 -0.590211 -0.777120
vn -0.347173 -0.937801 0.000000
vn 0.351490 -0.936192 0.000000
vn 0.221137 -0.589032 -0.777264
vn 0.221137 -0.589032 -0.777264
vn 0.351490 -0.936192 0.000000
vn 0.909511 -0.415679 0.000000
vn 0.546426 -0.249726 -0.799410
vn 0.546426 -0.249726 -0.799410
vn 0.909511 -0.415679 0.000000
vn 0.907276 0.420536 0.000000
vn 0.545179 0.252683 -0.799331
vn 0.545179 0.252683 -0.799331
vn 0.907276 0.420536 0.000000
vn 0.347173 0.937801 0.000000
vn 0.218486 0.590211 -0.777120
vn 0.218486 0.590211 -0.777120
vn 0.347173 0.937801 0.000000
vn -0.351490 0.936192 0.000000
vn -0.221137 0.589032 -0.777264
vn 0.282182 -0.752508 -0.595068
vn 0.351137 -0.936324 0.000000
vn -0.347447 -0.937700 0.000000
vn -0.279045 -0.753188 -0.595686
vn -0.279045 -0.753188 -0.595686
vn -0.347447 -0.937700 0.000000
vn -0.907460 -0.420139 0.000000
vn -0.709534 -0.328479 -0.623428
vn -0.709534 -0.328479 -0.623428
vn -0.907460 -0.420139 0.000000
vn -0.909370 0.415988 0.000000
vn -0.710413 0.324935 -0.624284
vn -0.710413 0.324935 -0.624284
vn -0.909370 0.415988 0.000000
vn -0.351137 0.936324 0.000000
vn -0.282182 0.752508 -0.595068
vn -0.282182 0.752508 -0.595068
vn -0.351137 0.936324 0.000000
vn 0.347447 0.937700 0.000000
vn 0.279045 0.753188 -0.595686
vn 0.279045 0.753188 -0.595686
vn 0.347447 0.937700 0.000000
vn 0.907460 0.420139 0.000000
vn 0.709534 0.328479 -0.623428
vn 0.709534 0.328479 -0.623428
vn 0.907460 0.420139 0.000000
vn 0.909370 -0.415988 0.000000
vn 0.710413 -0.324935 -0.624284
vn 0.710413 -0.324935 -0.624284
vn 0.909370 -0.415988 0.000000
vn 0.351137 -0.936324 0.000000
vn 0.282182 -0.752508 -0.595068
vn 0.282182 -0.752508 -0.595068
vn -0.279045 -0.753188 -0.595686
vn 0.218486 0.590211 -0.777120
vn -0.221137 0.589032 -0.777264
vn -0.279045 -0.753188 -0.595686
vn -0.709534 -0.328479 -0.623428
vn 0.545179 0.252683 -0.799331
vn 0.218486 0.590211 -0.777120
vn -0.709534 -0.328479 -0.623428
vn -0.710413 0.324935 -0.624284
vn 0.546426 -0.249726 -0.799410
vn 0.545179 0.252683 -0.799331
vn -0.710413 0.324935 -0.624284
vn -0.282182 0.752508 -0.595068
vn 0.221137 -0.589032 -0.777264
vn 0.546426 -0.249726 -0.799410
vn -0.282182 0.752508 -0.595068
vn 0.279045 0.753188 -0.595686
vn -0.218486 -0.590211 -0.777120
vn 0.221137 -0.589032 -0.777264
vn 0.279045 0.753188 -0.595686
vn 0.709534 0.328479 -0.623428
vn -0.545179 -0.252683 -0.799331
vn -0.218486 -0.590211 -0.777120
vn 0.709534 0.328479 -0.623428
vn 0.710413 -0.324935 -0.624284
vn -0.546426 0.249726 -0.799410
vn -0.545179 -0.252683 -0.799331
vn 0.710413 -0.324935 -0.624284
vn 0.282182 -0.752508 -0.595068
vn -0.221137 0.589032 -0.777264
vn -0.546426 0.249726 -0.799410
vn 0.000000 -0.804243 0.594301
vn 0.000000 -0.804243 0.594301
vn 0.000000 -0.804243 0.594301
vn 0.000000 -0.804243 0.594301
vn -0.645397 -0.420434 0.637729
vn -0.645397 -0.420434 0.637729
vn -0.645397 -0.420434 0.637729
vn -0.645397 -0.420434 0.637729
vn 0.645397 -0.420434 0.637729
vn 0.645397 -0.420434 0.637729
vn 0.645397 -0.420434 0.637729
vn 0.645397 -0.420434 0.637729
vn -0.852019 0.000000 0.523511
vn -0.852019 0.000000 0.523511
vn -0.852019 0.000000 0.523511
vn -0.852019 0.000000 0.523511
vn -0.600934 0.470765 0.645956
vn -0.600934 0.470765 0.645956
vn -0.600934 0.470765 0.645956
vn -0.600934 0.470765 0.645956
vn 0.852019 0.000000 0.523511
vn 0.852019 0.000000 0.523511
vn 0.852019 0.000000 0.523511
vn 0.852019 0.000000 0.523511
vn 0.600934 0.470765 0.645956
vn 0.600934 0.470765 0.645956
vn 0.600934 0.470765 0.645956
vn 0.600934 0.470765 0.645956
vn 0.000000 0.809560 0.587037
vn 0.000000 0.809560 0.587037
vn 0.000000 0.809560 0.587037
vn 0.000000 0.809560 0.587037
vn 0.000000 -0.303422 0.952856
vn 0.000000 -0.303422 0.952856
vn 0.000000 -0.303422 0.952856
vn 0.000000 -0.303422 0.952856
vn 0.479910 0.000000 0.877318
vn 0.479910 0.000000 0.877318
vn 0.479910 0.000000 0.877318
vn 0.479910 0.000000 0.877318
vn 0.000000 0.303422 0.952856
vn 0.000000 0.303422 0.952856
vn 0.000000 0.303422 0.952856
vn 0.000000 0.303422 0.952856
vn -0.479910 0.000000 0.877318
vn -0.479910 0.000000 0.877318
vn -0.479910 0.000000 0.877318
vn -0.479910 0.000000 0.877318
vn 0.000000 0.000000 1.000000
vn 0.000000 0.000000 1.000000
vn 0.000000 0.000000 1.000000
vn 0.000000 0.000000 1.000000
vn 0.000000 -0.004778 0.999989
vn 0.000000 -0.004778 0.999989
vn 0.000000 -0.004778 0.999989
vn 0.000000 -0.004778 0.999989
vn 0.000000 0.000000 1.000000
vn 0.000000 0.000000 1.000000
vn 0.000000 0.000000 1.000000
vn 0.000000 0.000000 1.000000
vn 0.000000 0.003889 0.999992
vn 0.000000 0.003889 0.999992
vn 0.000000 0.003889 0.999992
vn 0.000000 0.003889 0.999992
s off
g polySurface59
usemtl initialShadingGroup
f 4/1/1 6/2/2 5/3/3 3/4/4
f 2/5/5 7/6/6 6/2/7 4/7/8
f 1/8/9 8/9/10 7/6/11 2/10/12
f 8/9/13 5/3/14 6/2/15 7/6/16
f 8/11/17 10/12/18 9/13/19 5/14/20
f 1/15/21 11/16/22 10/12/23 8/11/24
f 5/14/25 9/13/26 12/17/27 3/18/28
f 15/19/29 17/20/30 18/21/31 16/22/32
f 16/23/33 18/21/34 19/24/35 14/25/36
f 14/26/37 19/24/38 20/27/39 13/28/40
f 17/20/41 20/27/42 19/24/43 18/21/44
f 20/29/45 22/30/46 21/31/47 13/32/48
f 17/33/49 23/34/50 22/30/51 20/29/52
f 15/35/53 24/36/54 23/34/55 17/33/56
f 25/37/57 26/38/58 27/39/59 28/40/60
f 27/39/61 29/41/62 30/42/63 28/40/64
f 31/43/65 25/37/66 28/40/67 30/42/68
f 25/37/69 31/43/70 32/44/71 26/38/72
f 26/38/73 32/44/74 29/41/75 27/39/76
f 39/45/77 42/46/78 41/47/79 40/48/80
f 40/48/81 41/47/82 43/49/83 38/50/84
f 36/51/85 45/52/86 42/46/87 39/45/88
f 38/50/89 43/49/90 44/53/91 37/54/92
f 37/54/93 44/53/94 47/55/95 34/56/96
f 35/57/97 46/58/98 45/52/99 36/51/100
f 33/59/101 48/60/102 46/58/103 35/57/104
f 48/61/105 33/62/106 34/56/107 47/55/108
f 36/63/109 39/64/110 40/65/111 38/66/112
f 35/67/113 36/63/114 38/66/115 37/68/116
f 33/69/117 35/67/118 37/68/119 34/70/120
f 49/71/121 80/72/122 73/73/123 56/74/124
f 50/75/125 79/76/126 80/72/127 49/71/128
f 79/76/129 50/75/130 51/77/131 78/78/132
f 78/78/133 51/77/134 52/79/135 77/80/136
f 77/80/137 52/79/138 53/81/139 76/82/140
f 76/82/141 53/81/142 54/83/143 75/84/144
f 75/84/145 54/83/146 55/85/147 74/86/148
f 74/86/149 55/85/150 56/74/151 73/73/152
f 72/87/153 63/88/154 57/89/155 71/90/156
f 71/90/157 57/89/158 58/91/159 70/92/160
f 70/92/161 58/91/162 59/93/163 69/94/164
f 69/94/165 59/93/166 60/95/167 68/96/168
f 68/96/169 60/95/170 61/97/171 67/98/172
f 67/98/173 61/97/174 62/99/175 66/100/176
f 66/100/177 62/99/178 64/101/179 65/102/180
f 65/102/181 64/101/182 63/88/183 72/87/184
f 72/87/185 71/90/186 74/86/187 73/73/188
f 71/90/189 70/92/190 75/84/191 74/86/192
f 70/92/193 69/94/194 76/82/195 75/84/196
f 69/94/197 68/96/198 77/80/199 76/82/200
f 68/96/201 67/98/202 78/78/203 77/80/204
f 67/98/205 66/100/206 79/76/207 78/78/208
f 66/100/209 65/102/210 80/72/211 79/76/212
f 65/102/213 72/87/214 73/73/215 80/72/216
f 96/103/217 95/104/218 82/105/219 81/106/220
f 94/107/221 96/103/222 81/106/223 83/108/224
f 95/104/225 92/109/226 85/110/227 82/105/228
f 93/111/229 94/107/230 83/108/231 84/112/232
f 90/113/233 93/111/234 84/112/235 88/114/236
f 92/109/237 91/115/238 86/116/239 85/110/240
f 91/115/241 89/117/242 87/118/243 86/116/244
f 89/119/245 90/113/246 88/114/247 87/120/248
f 103/121/249 102/122/250 100/123/251 97/124/252
f 104/125/253 103/126/254 97/127/255 98/128/256
f 98/129/257 99/130/258 101/131/259 104/132/260
f 102/133/261 101/134/262 99/135/263 100/136/264
f 104/137/265 101/138/266 102/139/267 103/140/268
f 109/141/269 107/142/270 106/143/271 105/144/272
f 110/145/273 108/146/274 107/142/275 109/141/276
f 112/147/277 111/148/278 108/146/279 110/145/280
