# This file uses centimeters as units for non-parametric coordinates.

mtllib Planet_skybox.mtl
g default
v -9.191500 -9.191500 9.191500
v 9.191500 -9.191500 9.191500
v -9.191500 9.191500 9.191500
v 9.191500 9.191500 9.191500
v -9.191500 9.191500 -9.191500
v 9.191500 9.191500 -9.191500
v -9.191500 -9.191500 -9.191500
v 9.191500 -9.191500 -9.191500
vt 0.613769 0.381854
vt 0.613769 0.630340
vt 0.366082 0.630340
vt 0.366082 0.381854
vt 0.838248 0.041605
vt 0.838248 0.290176
vt 0.589554 0.290176
vt 0.589554 0.041605
vt 0.371444 0.940322
vt 0.371444 0.692441
vt 0.619335 0.692441
vt 0.619335 0.940322
vt 0.238016 0.048459
vt 0.484126 0.048459
vt 0.484126 0.294347
vt 0.238016 0.294347
vt 0.309162 0.376700
vt 0.309162 0.625633
vt 0.060164 0.625633
vt 0.060164 0.376700
vt 0.675772 0.619400
vt 0.675772 0.371056
vt 0.924160 0.371056
vt 0.924160 0.619400
vn 0.000000 0.000000 -1.000000
vn 0.000000 0.000000 -1.000000
vn 0.000000 0.000000 -1.000000
vn 0.000000 0.000000 -1.000000
vn 0.000000 -1.000000 0.000000
vn 0.000000 -1.000000 0.000000
vn 0.000000 -1.000000 0.000000
vn 0.000000 -1.000000 0.000000
vn 0.000000 0.000000 1.000000
vn 0.000000 0.000000 1.000000
vn 0.000000 0.000000 1.000000
vn 0.000000 0.000000 1.000000
vn 0.000000 1.000000 0.000000
vn 0.000000 1.000000 0.000000
vn 0.000000 1.000000 0.000000
vn 0.000000 1.000000 0.000000
vn -1.000000 0.000000 0.000000
vn -1.000000 0.000000 0.000000
vn -1.000000 0.000000 0.000000
vn -1.000000 0.000000 0.000000
vn 1.000000 0.000000 0.000000
vn 1.000000 0.000000 0.000000
vn 1.000000 0.000000 0.000000
vn 1.000000 0.000000 0.000000
s off
g pCube1
usemtl lambert2SG
f 1/17/1 3/18/2 4/19/3 2/20/4
f 3/9/5 5/10/6 6/11/7 4/12/8
f 5/21/9 7/22/10 8/23/11 6/24/12
f 7/13/13 1/14/14 2/15/15 8/16/16
f 2/1/17 4/2/18 6/3/19 8/4/20
f 7/5/21 5/6/22 3/7/23 1/8/24
